PathFileType	4	(X/Y/Z)	C:/Users/beibeiliu/ov580/test_trc/User1\sequence.7_training_dense_left.trc
DataRate	CameraRate	NumFrames	NumMarkers	Units	OrigDataRate	OrigDataStartFrame	OrigNumFrames
120	120	16	19	mm	120	222	295
Frame#	Time	ThumbCMC			ThumbMCP			ThumbIP			ThumbTip			IndexMCP			IndexPIP			IndexTip			MiddleMCP			MiddlePIP			MiddleTip			RingMCP			RingPIP			RingTip			PinkyMCP			PinkyPIP			PinkyTip			BackHand1			BackHand2			BackHand3	
		X0	Y0	Z0	X1	Y1	Z1	X2	Y2	Z2	X3	Y3	Z3	X4	Y4	Z4	X5	Y5	Z5	X6	Y6	Z6	X7	Y7	Z7	X8	Y8	Z8	X9	Y9	Z9	X10	Y10	Z10	X11	Y11	Z11	X12	Y12	Z12	X13	Y13	Z13	X14	Y14	Z14	X15	Y15	Z15	X16	Y16	Z16	X17	Y17	Z17	X18	Y18	Z18	
221	1.84167	-139.106	98.1629	15.0016	-139.206	72.3334	-16.4577	-144.514	63.2424	-44.8589	-159.261	54.4836	-65.9963	-154.38	132.158	-59.505	-160.509	124.423	-90.8039	-159.593	90.8733	-101.162	-173.788	116.856	-72.8926	-177.58	80.861	-79.5227	-170.258	68.7936	-40.6477	-195.868	104.745	-64.3195	-195.362	71.2985	-60.6659	-188.88	65.8059	-26.7558	-214.851	103.949	-50.8355	-209.59	76.0688	-50.2619	-195.456	72.4474	-19.3449	-195.173	137.146	-9.88399	-198.154	139.543	30.3431	-159.003	137.561	7.03366	
222	1.85	-141.535	98.6539	14.0222	-140.907	72.8203	-17.6975	-145.599	64.3386	-46.0337	-162.743	56.1897	-68.0954	-152.512	132.498	-58.9116	-158.988	124.55	-90.7489	-159.099	91.5529	-100.025	-175.35	117.905	-70.6188	-176.306	80.5349	-79.2525	-171.935	69.3819	-40.5429	-196.469	104.309	-65.2828	-196.806	71.6747	-61.714	-191.567	65.2463	-28.6355	-217.411	106.829	-46.334	-210.562	74.6071	-47.7903	-196.388	73.0344	-17.5309	-198.06	138.131	-9.29527	-196.036	137.802	28.0674	-163.973	136.516	10.5587	
223	1.85833	-140.624	98.2499	13.8165	-142.617	71.9661	-12.5733	-149.31	66.1831	-41.0101	-161.935	54.9282	-65.898	-154.002	132.783	-60.2569	-163.234	123.18	-90.5345	-162.278	87.7542	-96.3022	-180.223	116.215	-71.6529	-177.603	82.5086	-80.7634	-170.106	68.723	-41.1665	-197.151	105.973	-63.6911	-196.376	70.8834	-59.3046	-189.733	65.763	-30.1443	-216.753	104.38	-50.4042	-208.505	77.3764	-48.3295	-196.393	74.0524	-17.7834	-194.752	139.795	-8.28532	-200.037	140.79	26.3221	-164.67	135.705	9.3801	
224	1.86667	-143.274	97.7671	13.1917	-145.528	74.5841	-16.8506	-147.03	61.3886	-42.2046	-163.342	54.0769	-65.3317	-154.385	132.689	-61.2658	-163.342	120.372	-92.0716	-159.528	85.9815	-93.8957	-180.908	114.82	-73.2933	-181.36	79.4276	-77.7569	-169.466	69.5006	-41.1106	-200.151	107.001	-60.8158	-199.531	69.86	-58.9343	-189.859	65.8863	-28.7392	-221.02	104.638	-49.6774	-213.009	75.4078	-48.3286	-195.751	74.6835	-16.9415	-198.754	138.952	-6.35536	-198.28	140.479	29.2905	-161.252	136.43	8.02549	
225	1.875	-141.537	97.2086	13.7959	-141.085	71.6005	-14.9855	-150.012	65.108	-38.5163	-166.033	56.7035	-67.1096	-156.932	133.196	-63.5362	-160.941	119.54	-92.8568	-164.918	87.0811	-91.7591	-178.386	117.622	-70.1697	-183.451	81.8508	-78.1558	-172.703	70.7834	-42.4337	-202.388	104.09	-64.3101	-195.918	71.3948	-60.1448	-192.058	66.8481	-28.5547	-217.846	104.528	-49.177	-212.055	77.1425	-46.6492	-197.324	75.1779	-15.4789	-197.798	140.254	-6.03943	-197.938	137.637	30.8119	-162.216	135.372	9.12393	
226	1.88333	-141.755	96.997	12.793	-146.122	73.7292	-15.5951	-149.149	62.9637	-45.0062	-167.939	58.3266	-67.079	-155.394	131.668	-61.1743	-162.88	119.883	-92.4381	-163.167	86.6955	-92.7449	-179.02	116.539	-71.9365	-181.495	80.315	-77.0868	-172.253	71.994	-40.5328	-198.793	105.061	-63.8611	-200.298	72.733	-58.8179	-190.356	68.807	-25.5702	-221.374	105.194	-49.7608	-214.602	76.7451	-45.5773	-197.11	77.1157	-19.1984	-200.147	140.429	-9.03806	-195.454	139.595	27.9467	-164.087	136.133	10.9421	
227	1.89167	-145.48	97.4982	15.0101	-145.844	74.4155	-14.6791	-152.524	65.4398	-41.8178	-168.412	59.0827	-64.5878	-155.137	131.485	-59.9955	-161.488	123.23	-91.7546	-161.98	85.8233	-92.956	-177.533	116.504	-72.2977	-179.776	80.2223	-78.342	-172.844	70.5201	-40.7053	-203.114	104.604	-64.6842	-198.661	71.3166	-58.7627	-192.259	68.574	-24.303	-219.349	108.612	-46.7921	-215.84	79.3724	-48.3775	-200.347	73.2078	-18.0153	-194.858	142.343	-9.66895	-197.78	139.256	27.8692	-159.659	137.617	8.21268	
228	1.9	-144.55	96.9583	15.4323	-146.165	72.6677	-12.1257	-152.987	64.0856	-40.0545	-165.882	54.3624	-66.4566	-157.224	131.654	-62.5937	-162.932	123.064	-91.357	-162.347	86.6367	-98.0898	-179.371	115.886	-72.6199	-182.603	81.2869	-77.7097	-176.972	70.6625	-42.4077	-204.832	107.892	-60.4637	-198.975	72.0886	-58.9275	-192.867	66.3681	-29.1917	-222.724	108.305	-46.2964	-214.59	76.2	-45.3504	-197.583	78.6271	-18.2462	-198.371	141.295	-7.68995	-196.367	140.433	28.3843	-160.966	135.717	11.0749	
229	1.90833	-146.677	96.3443	14.1281	-147.161	70.6133	-12.5538	-153.887	62.937	-40.4613	-168.475	55.4636	-68.086	-151.978	131.028	-60.9076	-160.583	124.671	-92.0913	-166.081	94.214	-103.112	-177.732	117.055	-69.8367	-181.111	79.1615	-77.8753	-178.943	69.445	-42.4201	-203.912	105.953	-63.0694	-203.257	72.1792	-57.1816	-194.944	68.7553	-23.2258	-222.003	105.543	-49.3748	-216.436	79.6017	-48.351	-199.826	74.9961	-16.3841	-196.253	139.319	-6.89903	-199.199	140.084	29.146	-164.577	136.129	7.33401	
230	1.91667	-145.887	94.8707	13.195	-150.118	72.0541	-18.4654	-155.69	62.5376	-43.6666	-170.432	55.9064	-68.0963	-153.047	130.977	-60.4655	-161.934	126.181	-93.8441	-170.562	99.4085	-111.135	-183.199	117.223	-71.1805	-183.124	80.392	-78.9605	-176.244	69.2094	-39.4171	-200.191	105.822	-62.5441	-205.645	73.5474	-58.1426	-192.935	67.782	-26.7768	-223.58	108.483	-47.6508	-214.277	78.1105	-44.5643	-199.719	78.4935	-15.0506	-196.117	142.291	-10.1278	-193.327	139.293	25.21	-162.914	136.397	8.01744	
231	1.925	-147.356	94.217	9.55788	-149.056	67.5283	-20.2847	-158.137	61.0396	-45.8566	-171.986	51.7691	-67.8868	-151.038	129.715	-64.1841	-158.897	128.683	-92.6378	-174.367	107.997	-118.171	-178.002	113.651	-73.7425	-183.909	78.383	-76.0976	-179.031	68.5028	-38.2049	-202.376	105.363	-62.8242	-207.272	73.9632	-55.3873	-195.607	69.9795	-23.963	-219.981	111.233	-46.2048	-216.08	81.4148	-45.0002	-201.258	76.6991	-18.0868	-193.07	142.878	-9.35296	-193.034	141.323	26.102	-160.716	134.747	7.33959	
232	1.93333	-147.094	91.1922	8.92202	-155.494	68.7245	-20.0443	-160.948	58.4376	-45.5967	-175.291	50.888	-65.6252	-152.069	128.736	-65.5481	-156.642	129.079	-92.5842	-168.8	119.602	-117.428	-182.642	113.353	-74.2063	-186.486	78.088	-76.8012	-183.466	67.2659	-41.7505	-206.843	104.813	-62.5749	-205.149	73.9848	-55.1247	-196.576	70.8089	-21.5925	-220.445	109.331	-48.9001	-218.86	80.7838	-42.1384	-200.189	81.0893	-13.4705	-191.095	141.255	-6.62381	-192.33	140.393	26.7971	-158.739	132.777	10.2087	
233	1.94167	-148.999	88.6093	12.7595	-156.495	65.9394	-17.6361	-162.46	54.9854	-43.9237	-180.08	52.5359	-71.157	-151.423	124.894	-63.5975	-157.763	128.997	-92.4746	-170.911	125.395	-117.711	-180.996	113.119	-70.8786	-190.601	80.4964	-77.3158	-184.981	68.7265	-36.5374	-202.486	108.757	-59.9497	-210.782	74.9267	-53.563	-196.253	71.0351	-19.2436	-221.426	111.594	-46.7441	-217.498	81.6475	-40.216	-204.386	81.1623	-14.0729	-194.163	143.498	-8.18984	-191.234	140.956	27.341	-158.565	132.129	4.95139	
234	1.95	-148.3	87.3353	8.32144	-157.919	62.95	-17.1153	-164.484	55.2113	-46.2435	-182.203	52.9034	-65.9537	-152.18	124.294	-66.6938	-159.23	127.037	-94.1134	-168.26	125.392	-118.385	-182.917	110.277	-74.2658	-191.96	76.0789	-73.8195	-186.947	67.6585	-38.0539	-206.745	103.932	-62.425	-210.025	74.8064	-53.241	-200.62	72.0988	-18.8261	-221.033	111.935	-45.8025	-221.696	82.1886	-40.5333	-202.729	80.5939	-12.4671	-190.12	142.277	-9.95651	-186.773	140.819	26.0031	-157.058	130.769	6.41525	
235	1.95833	-149.539	84.9641	12.7521	-157.66	60.9308	-18.9495	-165.913	51.5178	-44.7691	-184.325	52.7089	-67.6108	-154.23	122.589	-66.1293	-157.129	123.857	-90.1724	-166.222	123.24	-120.611	-186.287	109.113	-74.1623	-192.04	74.4934	-73.76	-189.494	66.6542	-37.253	-208.595	104.557	-61.0169	-211.182	73.1516	-51.3707	-203.809	69.7174	-20.5862	-225.755	111.687	-45.9244	-221.614	82.2331	-39.0579	-204.683	79.8619	-14.9043	-191.533	140.665	-8.50912	-190.802	140.216	28.2234	-153.337	128.546	4.32865	
236	1.96667	-148.056	81.6273	11.2517	-158.005	57.304	-18.258	-166.835	49.9396	-46.2969	-184.592	48.254	-68.2988	-149.163	117.972	-69.8921	-155.423	119.741	-92.886	-164.377	120.345	-122.217	-181.727	109.865	-70.74	-195.321	74.2494	-72.4679	-190.909	64.8284	-38.2972	-205.084	106.767	-60.2842	-214.008	72.0376	-49.6389	-204.522	69.6488	-18.8577	-226.025	113.276	-45.5163	-220.925	81.2377	-39.586	-201.87	81.4955	-14.0533	-187.128	139.803	-8.04386	-188.817	141.626	25.7194	-155.888	127.28	5.18656	
